<svg xmlns="http://www.w3.org/2000/svg" height="800" width="1200" version="1.0" viewBox="-150 -62.352 1300 374.112"><path d="M270.338 0H0v41.527h256.843v.032c7.427 0 13.4 6.004 13.4 13.391v139.523l-.056.096c-.064 7.387-6.06 13.32-13.424 13.32H54.934c-7.395 0-13.423-5.98-13.423-13.416v-56.39c0-7.403 6.028-13.391 13.423-13.391h173.67V83.18H41.408C18.528 83.18 0 101.686 0 124.557v83.435c0 22.863 18.529 41.416 41.408 41.416h228.93c22.895 0 41.408-18.553 41.408-41.416V41.408C311.746 18.537 293.233 0 270.338 0" fill="#0096d7"/><path d="M466.227.08l32.469 97.137c3.888 11.84 6.592 14.592 13.384 14.592h6.624v17.09h-70.919v-17.09h5.798c5.844 0 10.727-.787 10.727-2.918 0-1.957-.223-4.088-.978-6.99l-4.08-14.004h-39.658l-2.314 7.769c-2.155 6.8-2.918 9.71-2.918 12.43 0 3.14 6.791 3.721 12.063 3.721h5.599v17.09h-57.098v-17.098h6.593c6.8 0 9.51-2.751 13.423-14.592L427.388.08h38.839m-41.042 70.735h28.223L439.412 29.01h-.366zm104.771-46.839c0-5.455-1.36-8.35-6.998-8.35h-8.922V.08h48.19v48.373c7.166-8.175 16.31-13.407 25.042-13.407 29.146 0 40 22.751 40 48.373 0 25.639-10.854 48.35-40 48.35-12.23 0-23.109-4.246-29.932-14.942l-5.622 12.072h-21.766V23.976m32.279 59.443c0 19.818 4.453 31.682 15.332 31.682 10.902 0 15.356-11.864 15.356-31.682 0-19.817-4.454-31.642-15.356-31.642-10.88 0-15.332 11.825-15.332 31.642m76.739-59.443c0-5.455-1.383-8.35-6.982-8.35h-8.946V.08h48.199v48.373c7.18-8.175 16.318-13.407 25.057-13.407 29.13 0 40.024 22.751 40.024 48.373 0 25.639-10.895 48.35-40.024 48.35-12.262 0-23.117-4.246-29.948-14.942l-5.622 12.072h-21.758V23.976M671.23 83.42c0 19.818 4.477 31.682 15.332 31.682 10.894 0 15.356-11.864 15.356-31.682 0-19.817-4.462-31.642-15.356-31.642-10.847 0-15.332 11.825-15.332 31.642m174.67 0c0 31.085-21.184 48.35-50.13 48.35-28.97 0-50.156-17.265-50.156-48.35 0-31.094 21.185-48.374 50.155-48.374 28.947 0 50.132 17.28 50.132 48.373m-65.877 0c0 22.911 4.071 32.828 15.745 32.828 11.658 0 15.738-9.917 15.738-32.828 0-22.926-4.08-32.827-15.738-32.827-11.674 0-15.745 9.901-15.745 32.827m204.413 1.567v15.165c0 8.899-1.932 14.179-9.328 14.179-4.477 0-6.6-3.316-6.6-7.404V53.487h23.88V37.972h-23.88V1.83h-19.237c-1.574 16.12-6.608 36.143-26.027 36.143H892.93V1.83h-19.228c-1.583 16.12-6.617 36.143-26.044 36.143v15.515h13.034v48.787c0 19.817 11.061 29.495 31.061 29.495 23.34 0 32.637-10.457 32.637-29.495V84.978h-15.5v15.165c0 8.899-1.964 14.18-9.351 14.18-4.477 0-6.6-3.317-6.6-7.405V53.48h43.347v48.787c0 19.817 11.046 29.495 31.054 29.495 23.332 0 32.66-10.457 32.66-29.495V84.97h-15.563"/></svg>