<svg xmlns="http://www.w3.org/2000/svg" version="1.0" width="340.000000pt" height="300.000000pt" viewBox="0 0 340.000000 300.000000" preserveAspectRatio="xMidYMid meet">

<g transform="translate(0.000000,300.000000) scale(0.100000,-0.100000)" fill="#2196f3" stroke="none">
<path d="M190 2415 l0 -185 1198 0 c1120 0 1199 -1 1232 -18 73 -36 70 -8 70 -755 0 -727 2 -700 -56 -746 -27 -21 -28 -21 -1001 -21 -1075 0 -1015 -4 -1047 64 -14 29 -16 76 -16 323 0 268 1 290 20 320 40 66 -6 63 895 63 l815 0 0 190 0 190 -867 0 c-930 0 -952 -1 -1038 -51 -86 -48 -148 -124 -184 -224 -18 -50 -28 -778 -13 -905 18 -146 94 -253 222 -314 l65 -31 1145 0 1145 0 65 31 c71 34 126 83 166 146 56 88 55 66 52 985 l-3 848 -27 57 c-34 74 -112 152 -186 186 l-57 27 -1297 3 -1298 2 0 -185z" fill="#2196f3"/>
</g>
</svg>